<?xml version="1.0" standalone="no"?>
<!DOCTYPE svg PUBLIC "-//W3C//DTD SVG 20010904//EN"
 "http://www.w3.org/TR/2001/REC-SVG-20010904/DTD/svg10.dtd">
<svg version="1.0" xmlns="http://www.w3.org/2000/svg"
 width="906.000000pt" height="1208.000000pt" viewBox="0 0 906.000000 1208.000000"
 preserveAspectRatio="xMidYMid meet">

<g transform="translate(0.000000,1208.000000) scale(0.100000,-0.100000)"
fill="#000000" stroke="none">
<path d="M6840 9769 c-476 -55 -1013 -301 -1552 -710 -133 -101 -186 -155 -78
-79 41 29 86 62 100 74 47 42 368 245 514 327 260 144 594 275 838 328 287 62
578 42 872 -59 238 -82 427 -198 576 -352 98 -101 133 -126 85 -60 -65 87
-199 206 -321 284 -203 130 -483 222 -759 248 -124 11 -167 11 -275 -1z"/>
<path d="M1755 9755 c-55 -8 -126 -14 -158 -14 -36 -1 -72 -8 -95 -20 -20 -10
-84 -33 -142 -51 -113 -35 -166 -59 -217 -98 -70 -52 -30 -52 197 3 215 53
242 56 505 67 330 13 315 13 430 -11 382 -82 679 -183 986 -336 89 -45 127
-60 115 -46 -11 12 -36 31 -55 43 -20 12 -56 38 -81 58 -97 79 -309 194 -490
264 -310 123 -717 180 -995 141z"/>
<path d="M6835 9684 c-387 -45 -623 -125 -1015 -349 -314 -178 -524 -329 -667
-478 -168 -176 -203 -310 -104 -400 116 -104 274 -84 476 61 39 27 153 118
255 202 316 259 565 410 826 500 149 51 266 75 479 95 373 37 642 -20 890
-188 88 -60 218 -189 301 -300 41 -54 74 -93 74 -88 0 26 -42 185 -63 243 -54
143 -204 323 -347 417 -94 61 -310 165 -417 200 -209 68 -511 105 -688 85z"/>
<path d="M1585 9474 c-193 -16 -451 -75 -578 -132 -222 -101 -409 -282 -525
-509 -49 -97 -106 -242 -98 -250 5 -6 61 65 136 172 35 50 107 133 160 186
110 111 184 152 347 196 93 25 110 27 343 27 275 1 379 -11 606 -69 322 -83
614 -226 902 -443 70 -53 174 -131 230 -174 138 -103 216 -142 301 -146 59 -3
71 0 112 26 264 170 66 539 -421 783 -265 133 -688 264 -1000 309 -131 19
-413 32 -515 24z"/>
<path d="M6700 8104 c-14 -2 -65 -9 -115 -15 -124 -15 -329 -69 -455 -119
-282 -112 -680 -359 -680 -421 0 -24 53 -4 114 42 289 218 658 393 971 459
128 27 372 37 510 21 113 -13 397 -65 414 -75 6 -4 11 -1 11 7 0 9 -15 16 -42
20 -24 3 -92 17 -153 31 -197 45 -452 67 -575 50z"/>
<path d="M7522 7983 c2 -10 10 -18 18 -18 22 0 18 29 -3 33 -14 3 -18 -1 -15
-15z"/>
<path d="M6666 7970 c-230 -37 -527 -135 -733 -245 -66 -35 -221 -132 -243
-152 -16 -15 94 -48 215 -64 184 -25 928 -12 1300 22 276 25 486 92 575 184
l32 33 -43 28 c-209 132 -465 193 -829 199 -118 2 -241 0 -274 -5z"/>
<path d="M7600 7960 c0 -11 7 -20 15 -20 8 0 15 9 15 20 0 11 -7 20 -15 20 -8
0 -15 -9 -15 -20z"/>
<path d="M7733 7923 c-34 -13 2 -53 46 -53 27 0 27 14 -1 40 -23 21 -25 22
-45 13z"/>
<path d="M1630 7874 c-66 -9 -195 -36 -265 -56 -128 -37 -226 -101 -239 -156
-4 -15 -9 -34 -12 -43 -3 -12 18 -26 83 -56 176 -81 339 -122 588 -149 205
-22 934 -15 1097 10 143 22 268 66 268 95 0 12 -108 95 -178 135 -83 50 -268
120 -404 155 -204 53 -297 63 -613 66 -159 2 -306 1 -325 -1z"/>
<path d="M8535 7290 c-7 -11 23 -80 35 -80 12 0 21 31 15 51 -8 24 -41 43 -50
29z"/>
<path d="M444 7233 c-3 -10 -19 -44 -35 -75 -41 -78 -66 -154 -94 -283 -51
-237 -70 -610 -40 -806 53 -352 271 -695 568 -893 174 -115 292 -154 498 -163
410 -17 922 114 1564 402 230 103 493 240 482 251 -1 2 -104 -42 -227 -97
-640 -287 -1090 -429 -1530 -485 -169 -21 -349 -15 -465 15 -411 108 -770 541
-839 1012 -39 261 -5 732 68 945 26 78 60 149 76 159 5 3 10 13 10 21 0 20
-30 18 -36 -3z"/>
<path d="M8605 7119 c-5 -15 -1 -25 14 -35 15 -11 21 -26 21 -56 0 -22 6 -63
14 -91 39 -141 52 -565 23 -752 -46 -291 -163 -528 -356 -725 -304 -309 -605
-379 -1156 -269 -337 67 -663 173 -1100 356 -212 89 -225 94 -225 89 0 -10 80
-52 232 -122 342 -159 435 -196 683 -270 290 -88 429 -121 540 -131 65 -5 75
-8 55 -16 -111 -43 -104 -35 -298 -322 -241 -358 -365 -465 -612 -528 -162
-42 -243 -51 -470 -51 -239 0 -334 14 -402 59 -21 14 -98 84 -172 156 -114
110 -189 192 -428 463 -22 26 -30 29 -45 20 -58 -34 -153 -85 -153 -81 0 2 24
20 53 39 28 19 72 52 97 73 57 48 244 138 331 159 127 31 212 16 263 -45 24
-28 46 -38 46 -20 0 11 -70 75 -99 90 -66 36 -184 28 -326 -22 -118 -41 -176
-71 -293 -151 -63 -43 -144 -92 -180 -109 -64 -30 -74 -32 -210 -35 -223 -6
-245 0 -492 143 -214 124 -367 187 -517 216 -162 30 -250 -41 -223 -181 16
-87 83 -180 128 -180 11 0 6 10 -16 33 -62 65 -96 181 -68 235 23 45 49 56
120 49 126 -12 330 -97 531 -222 115 -71 239 -135 264 -135 8 0 12 -3 8 -6 -9
-9 -102 24 -181 63 -37 19 -69 33 -71 31 -2 -2 -40 -59 -85 -128 -133 -202
-290 -389 -370 -440 -88 -56 -146 -65 -430 -64 -287 1 -539 23 -627 54 -146
51 -302 195 -500 460 -148 198 -217 270 -260 270 -102 -1 -123 -165 -49 -384
42 -124 112 -267 166 -335 170 -214 445 -433 612 -486 42 -13 130 -32 195 -40
248 -34 247 -33 264 -64 15 -26 26 -30 129 -50 484 -92 919 -125 1635 -125
650 0 931 18 1234 80 118 23 349 93 381 114 21 14 16 13 -147 -20 -305 -61
-675 -80 -1448 -75 -545 4 -767 10 -1175 31 -435 22 -581 36 -571 53 8 12 34
11 180 -3 241 -23 518 -31 615 -17 114 16 169 45 262 137 81 79 225 255 341
414 34 47 82 107 106 135 54 60 46 64 159 -89 115 -155 267 -334 350 -411 44
-40 100 -80 147 -103 l75 -37 291 2 c381 3 769 36 994 84 276 60 447 153 625
340 100 105 198 250 391 579 76 129 146 247 156 261 11 15 20 37 21 49 3 19
-5 26 -47 40 l-50 17 155 6 c184 7 250 22 367 81 285 144 516 407 628 716 48
133 65 234 72 410 7 200 -8 414 -43 615 -14 83 -27 163 -28 178 -1 25 -19 46
-38 47 -4 0 -10 -9 -13 -21z m-3850 -2319 c-3 -5 -12 -10 -18 -10 -7 0 -6 4 3
10 19 12 23 12 15 0z m-312 -87 c-18 -2 -48 -2 -65 0 -18 2 -4 4 32 4 36 0 50
-2 33 -4z"/>
<path d="M8517 5324 c-10 -10 -8 -56 3 -74 14 -23 32 2 28 40 -3 33 -17 48
-31 34z"/>
<path d="M8487 5188 c-7 -25 -1 -38 18 -38 16 0 29 35 20 50 -11 17 -32 11
-38 -12z"/>
<path d="M8466 5104 c-11 -28 -6 -54 8 -54 21 0 29 17 22 46 -7 27 -21 31 -30
8z"/>
<path d="M5225 5055 c-27 -7 -71 -23 -97 -34 -47 -20 -48 -21 -48 -67 l0 -46
138 4 c202 6 248 31 210 112 -20 44 -106 57 -203 31z"/>
<path d="M8442 4993 c-6 -15 -37 -107 -68 -203 -122 -379 -224 -622 -435
-1040 -260 -517 -571 -1024 -972 -1585 -234 -326 -314 -434 -428 -570 -77 -93
-141 -175 -135 -175 3 0 37 39 76 87 68 84 93 113 195 231 59 68 313 407 437
582 564 800 993 1599 1232 2298 30 86 61 173 69 192 18 41 52 199 44 206 -2 3
-9 -8 -15 -23z"/>
<path d="M7796 4465 c-145 -328 -413 -803 -703 -1245 -286 -435 -470 -686
-824 -1122 -70 -86 -125 -159 -122 -162 4 -3 14 6 24 22 10 15 70 86 134 157
233 258 563 691 811 1060 278 413 741 1279 732 1368 -3 27 -10 16 -52 -78z"/>
<path d="M3940 2791 c0 -3 65 -84 145 -180 159 -191 162 -196 152 -315 -7 -76
-30 -158 -97 -351 -55 -158 -70 -242 -70 -388 0 -216 39 -385 154 -677 41
-102 95 -255 121 -340 26 -85 57 -175 70 -200 12 -25 32 -80 44 -123 27 -99
41 -126 85 -164 49 -44 94 -57 148 -43 73 20 105 45 122 98 34 106 65 316 86
581 13 148 23 203 83 452 48 200 70 366 65 486 -4 89 -11 117 -75 308 -105
310 -115 406 -55 527 17 35 74 121 127 192 52 71 95 133 95 138 0 6 -16 7 -37
4 -330 -55 -705 -59 -1065 -12 -54 7 -98 10 -98 7z"/>
</g>
</svg>
